# xmcd CD database file
#
# Track frame offsets:
#	165
#	26413
#	55089
#	77621
#	103602
#	125195
#	147938
#	182056
#
# Disc length: 2734 seconds
#
# Revision: 0
# Processed by: cddbd v1.5.2PL0 Copyright (c) Steve Scherf et al.
# Submitted via: CDex 1.51
#
DISCID=670aac08
DTITLE=Jeff Carver and Joe Alley - Gettin' Comfortable
DYEAR=2001
DGENRE=Jazz
TTITLE0=Are You Ready?
TTITLE1=Gettin' Comfortable
TTITLE2=Baila de Calle
TTITLE3=When I'm Alone With You
TTITLE4=San Pedro
TTITLE5=One Magic Night
TTITLE6=Takin' Her Home
TTITLE7=For th Rest of My Life
EXTD=YEAR: 2001
EXTT0=
EXTT1=
EXTT2=
EXTT3=
EXTT4=
EXTT5=
EXTT6=
EXTT7=
PLAYORDER=
